<svg width="43" height="40" viewBox="0 0 43 40" fill="none" xmlns="http://www.w3.org/2000/svg">
<path fill-rule="evenodd" clip-rule="evenodd" d="M18.4075 25.8815L18.4081 25.8805L18.4081 25.8815H18.4075ZM18.4081 25.8805C20.0993 23.2837 22.4828 21.2457 25.2915 19.9874C27.0771 19.1871 28.9907 18.7392 30.9197 18.6485C31.3745 13.595 30.1876 7.67028 27.3638 0.875C19.6787 1.1722 12.9829 6.3314 10.5844 13.7961C9.92136 15.8699 9.62464 18.0091 9.6742 20.1135C10.9407 20.7277 12.1122 21.5784 13.1315 22.6555C14.7431 24.3517 15.8014 26.4506 16.2668 28.6703C16.4497 20.8231 19.2835 13.2173 24.3872 7.19717C20.6092 12.7488 18.5717 19.2573 18.4081 25.8805ZM25.7322 21.0189C20.0498 23.5507 16.514 29.4298 16.8549 35.752C21.8643 29.6466 29.2285 26.0676 37.0221 25.9469C29.3618 26.9136 22.4677 31.1716 18.066 37.645C28.2734 41.7475 36.3644 37.3232 42.3482 24.3865C38.0408 19.8259 31.4187 18.487 25.7316 21.0189H25.7322ZM13.0118 37.0608C4.8719 36.9354 0.530311 31.5744 0.000589907 20.9588H0C4.20887 19.0658 9.13917 20.0576 12.3387 23.4301C15.5389 26.8127 16.3547 31.8662 14.3668 36.1044C12.6113 30.4715 8.54161 25.9013 3.22493 23.5657C8.22012 26.435 11.7754 31.3427 13.0118 37.0608Z" fill="#38B6FF"/>
</svg>
